<?xml version="1.0" standalone="no"?>
<!DOCTYPE svg PUBLIC "-//W3C//DTD SVG 20010904//EN"
 "http://www.w3.org/TR/2001/REC-SVG-20010904/DTD/svg10.dtd">
<svg version="1.0" xmlns="http://www.w3.org/2000/svg"
 width="360.000000pt" height="360.000000pt" viewBox="0 0 360.000000 360.000000"
 preserveAspectRatio="xMidYMid meet">
<metadata>
Created by potrace 1.14, written by Peter Selinger 2001-2017
</metadata>
<g transform="translate(0.000000,360.000000) scale(0.100000,-0.100000)"
fill="#000000" stroke="none">
<path d="M3455 3537 c-110 -55 -478 -225 -660 -304 -153 -66 -243 -103 -650
-268 -855 -346 -1907 -775 -1936 -790 -114 -58 -174 -151 -167 -258 7 -109 28
-138 294 -407 148 -150 250 -262 263 -288 l21 -42 148 0 147 0 -55 53 c-30 29
-180 169 -334 312 -153 142 -287 273 -297 289 -39 63 -15 147 52 181 24 13
1813 648 2169 770 172 59 607 216 707 254 185 72 257 160 359 438 18 51 30 94
26 97 -4 2 -43 -14 -87 -37z"/>
<path d="M3175 2913 c-60 -23 -351 -122 -645 -218 -995 -328 -2025 -666 -2090
-687 -179 -57 -210 -108 -118 -196 l34 -32 326 85 c179 47 327 85 330 85 2 0
4 12 3 27 l0 26 970 262 c703 189 985 269 1023 290 30 16 74 52 99 79 65 73
191 292 181 315 -2 4 -52 -12 -113 -36z"/>
<path d="M2780 2360 c-102 -26 -273 -70 -380 -98 -207 -54 -450 -116 -800
-206 -118 -30 -258 -66 -310 -80 -52 -13 -273 -70 -490 -126 -217 -56 -396
-103 -398 -105 -4 -3 110 -113 136 -131 15 -10 53 -6 218 26 109 21 285 55
390 75 186 36 191 37 187 60 -3 12 -1 25 4 28 4 3 280 57 613 121 857 165 793
147 886 249 51 57 164 215 164 231 0 11 -33 5 -220 -44z"/>
<path d="M2635 1953 c-30 -7 -250 -48 -1184 -223 -470 -88 -856 -161 -858
-163 -2 -3 36 -41 85 -85 l88 -81 470 59 c258 33 470 60 472 60 1 0 2 11 2 25
0 30 -21 26 325 75 301 43 357 56 419 100 59 41 216 210 216 232 0 8 -2 8 -35
1z"/>
<path d="M1495 1445 c-154 -18 -365 -43 -470 -55 -104 -12 -196 -24 -203 -26
-7 -2 31 -44 85 -94 l98 -90 630 0 c599 0 629 1 608 18 -40 30 -451 282 -460
281 -4 -1 -134 -16 -288 -34z"/>
<path d="M945 716 c-122 -38 -181 -111 -173 -212 9 -103 84 -169 223 -195 73
-14 210 -6 285 17 109 32 176 136 151 233 -22 83 -74 130 -174 157 -65 17
-257 17 -312 0z m225 -69 c69 -24 100 -119 66 -202 -19 -44 -61 -65 -133 -65
-67 0 -118 25 -133 66 -13 34 -13 104 1 144 21 57 117 85 199 57z"/>
<path d="M22 693 c2 -23 9 -29 33 -31 16 -2 33 -9 37 -15 4 -7 8 -67 8 -134 0
-111 -2 -123 -19 -133 -11 -5 -29 -10 -40 -10 -17 0 -21 -6 -21 -30 l0 -30
160 0 160 0 0 30 c0 24 -4 30 -21 30 -43 0 -59 18 -59 65 l0 45 125 0 125 0 0
-45 c0 -47 -16 -65 -60 -65 -17 0 -21 -5 -18 -27 l3 -28 160 0 160 0 0 24 c0
20 -7 27 -35 34 -19 5 -38 14 -42 20 -3 5 -7 63 -7 127 -2 127 2 136 54 142
24 2 30 8 30 28 l0 25 -162 3 -163 2 0 -25 c0 -19 6 -26 28 -31 51 -11 52 -12
52 -59 l0 -45 -126 0 -125 0 3 48 c3 45 4 47 38 52 29 4 36 10 38 33 l3 27
-161 0 -161 0 3 -27z"/>
<path d="M1457 713 c-17 -16 -6 -43 21 -49 15 -3 33 -7 40 -10 9 -2 12 -39 12
-139 l0 -135 -41 -6 c-36 -6 -40 -9 -37 -33 l3 -26 128 -3 127 -3 0 31 c0 25
-4 30 -23 30 -51 0 -58 16 -55 134 l3 109 109 -146 c61 -81 118 -148 130 -151
12 -3 63 -6 114 -6 66 0 92 3 93 13 1 6 4 84 8 172 l6 160 35 5 c29 4 36 10
38 33 l3 27 -131 0 -131 0 3 -27 c2 -23 8 -29 35 -31 41 -4 45 -17 41 -142
l-3 -95 -55 72 c-30 39 -81 105 -113 147 l-58 76 -148 0 c-81 0 -151 -3 -154
-7z"/>
<path d="M2202 693 c2 -22 9 -29 33 -33 l30 -5 3 -137 3 -136 -38 -9 c-31 -7
-38 -13 -38 -33 l0 -25 235 0 c190 1 245 4 290 17 74 23 127 76 139 141 18 97
-21 176 -106 218 -46 23 -58 24 -301 27 l-253 4 3 -29z m428 -63 c41 -22 59
-100 40 -171 -15 -53 -51 -69 -160 -69 l-80 0 0 125 0 125 91 0 c50 0 99 -5
109 -10z"/>
<path d="M2970 696 c0 -25 16 -36 56 -36 14 0 27 -6 30 -13 5 -14 -138 -255
-160 -269 -6 -4 -24 -8 -39 -8 -25 0 -28 -3 -25 -27 l3 -28 128 -3 127 -3 0
31 c0 25 -4 30 -24 30 -35 0 -49 22 -30 48 14 21 23 22 140 22 124 0 124 0
136 -26 13 -29 0 -44 -39 -44 -19 0 -23 -6 -23 -30 l0 -30 173 2 172 3 3 26
c3 23 -1 27 -35 32 -38 6 -43 13 -151 177 l-111 170 -166 0 -165 0 0 -24z
m242 -126 l37 -60 -74 0 c-41 0 -75 3 -75 7 0 10 63 113 70 113 3 0 22 -27 42
-60z"/>
</g>
</svg>
